<svg xmlns="http://www.w3.org/2000/svg" width="320" height="96" viewBox="0 0 320 96">
  <rect width="320" height="96" fill="#0B1324"/>
  <rect x="14" y="16" width="46" height="64" rx="8" fill="#111D32"/>
  <rect x="70" y="16" width="46" height="64" rx="8" fill="#182741"/>
  <rect x="126" y="16" width="46" height="64" rx="8" fill="#28D7C7"/>
  <rect x="182" y="16" width="46" height="64" rx="8" fill="#9B5CFF"/>
  <rect x="238" y="16" width="46" height="64" rx="8" fill="#E6B85C"/>
  <path d="M37 28v40M93 28l12 20-12 20-12-20zM149 28c14 10 14 30 0 40-14-10-14-30 0-40zM205 28l18 40h-36zM261 28l14 14-14 14-14-14z" stroke="#F5F2EA" stroke-width="4" fill="none" stroke-linejoin="round"/>
  <path d="M294 48h16" stroke="#28D7C7" stroke-width="5" stroke-linecap="round"/>
</svg>
